<svg width="122" height="140" viewBox="0 0 122 140" fill="none" xmlns="http://www.w3.org/2000/svg">
<g clip-path="url(#clip0_91_239)">
<line x1="90.4829" y1="-18" x2="120.483" y2="33.9615" stroke="#2D4A80"/>
<line x1="90.2169" y1="16.9615" x2="120.217" y2="-35" stroke="#2D4A80"/>
<line x1="-70.1401" y1="144.477" x2="189.667" y2="-5.52301" stroke="#2D4A80"/>
<line x1="-103.1" y1="93.517" x2="156.708" y2="-56.483" stroke="#2D4A80"/>
<line x1="60.1499" y1="219.91" x2="60.1499" y2="-80.09" stroke="#2D4A80"/>
<line x1="-69.6401" y1="-5.68301" x2="190.167" y2="144.317" stroke="#2D4A80"/>
<line x1="-114.6" y1="38.367" x2="145.208" y2="188.367" stroke="#2D4A80"/>
<line x1="120.65" y1="219.25" x2="120.65" y2="-80.75" stroke="#2D4A80"/>
<line x1="-0.490234" y1="219.25" x2="-0.490234" y2="-80.75" stroke="#2D4A80"/>
<line x1="120.522" y1="34.343" x2="59.9" y2="-0.656984" stroke="#2D4A80"/>
<line x1="29.7109" y1="16.683" x2="-0.599951" y2="-0.816987" stroke="#2D4A80"/>
<line x1="-0.600098" y1="139.317" x2="29.7108" y2="121.817" stroke="#2D4A80"/>
<line x1="29.7109" y1="156.683" x2="-0.599951" y2="139.183" stroke="#2D4A80"/>
<line x1="60.3999" y1="139.117" x2="121.022" y2="104.117" stroke="#2D4A80"/>
<line x1="60.3999" y1="104.317" x2="121.022" y2="139.317" stroke="#2D4A80"/>
<line x1="-89.8501" y1="139.25" x2="210.15" y2="139.25" stroke="#2D4A80"/>
<line x1="60.1499" y1="69.25" x2="120.15" y2="69.25" stroke="#2D4A80"/>
<line x1="90.4829" y1="52" x2="120.483" y2="103.962" stroke="#2D4A80"/>
<line x1="90.4829" y1="122" x2="120.483" y2="173.962" stroke="#2D4A80"/>
<line x1="90.2169" y1="86.9615" x2="120.217" y2="35" stroke="#2D4A80"/>
<line x1="-0.350098" y1="34.25" x2="59.6499" y2="34.25" stroke="#2D4A80"/>
<line x1="29.9828" y1="17" x2="59.9828" y2="68.9615" stroke="#2D4A80"/>
<line x1="29.7169" y1="51.9615" x2="59.7169" y2="-5.96046e-06" stroke="#2D4A80"/>
<line x1="0.149902" y1="104.25" x2="60.1499" y2="104.25" stroke="#2D4A80"/>
<line x1="29.9828" y1="87" x2="59.9828" y2="138.962" stroke="#2D4A80"/>
<line x1="29.7169" y1="121.962" x2="59.7169" y2="70" stroke="#2D4A80"/>
<line x1="90.3499" y1="52.25" x2="90.3499" y2="17.25" stroke="#2D4A80"/>
<line x1="59.8999" y1="34.317" x2="90.2108" y2="16.817" stroke="#2D4A80"/>
<line x1="90.2108" y1="51.683" x2="59.8999" y2="34.183" stroke="#2D4A80"/>
<line x1="29.8499" y1="87.25" x2="29.8499" y2="52.25" stroke="#2D4A80"/>
<line x1="-0.600098" y1="69.317" x2="29.7108" y2="51.817" stroke="#2D4A80"/>
<line x1="29.7109" y1="86.683" x2="-0.599951" y2="69.183" stroke="#2D4A80"/>
<line x1="59.8999" y1="104.317" x2="90.2108" y2="86.817" stroke="#2D4A80"/>
</g>
<defs>
<clipPath id="clip0_91_239">
<rect width="121.15" height="139.75" fill="white"/>
</clipPath>
</defs>
</svg>
