<?xml version="1.0" encoding="utf-8"?>
<!-- Generator: Adobe Illustrator 19.0.0, SVG Export Plug-In . SVG Version: 6.00 Build 0)  -->
<svg version="1.1" id="Layer_1" xmlns="http://www.w3.org/2000/svg" xmlns:xlink="http://www.w3.org/1999/xlink" x="0px" y="0px"
	 viewBox="0 0 335 300" style="enable-background:new 0 0 33 300;" xml:space="preserve">
<style type="text/css">
	.metal{fill:#212121;stroke:#000000;stroke-width:0.25;stroke-miterlimit:10;}
	.prusa_orange{fill:#DE4921;stroke:#000000;stroke-width:0.25;stroke-miterlimit:10;}
	.black{fill:#070707;stroke:#000000;stroke-width:0.25;stroke-miterlimit:10;}
	.axle_silver{fill:#8D8D86;stroke:#000000;stroke-width:0.25;stroke-miterlimit:10;}
	.dark_gray{fill:#6E6D67;stroke:#000000;stroke-width:0.5;stroke-miterlimit:10;}
	.light_gray{fill:#AEB5BE;stroke:#000000;stroke-width:0.25;stroke-miterlimit:10;}
	.nozzle{fill:#94793C;stroke:#000000;stroke-width:0.25;stroke-miterlimit:10;}
	.hotend{fill:#222120;stroke:#000000;stroke-width:0.25;stroke-miterlimit:10;}
	.fan{fill:#1E1E1E;stroke:#000000;stroke-width:0.25;stroke-miterlimit:10;}
	.shaded_hotend{fill:#191919;stroke:#000000;stroke-width:0.25;stroke-miterlimit:10;}
	.motor_face{fill:#050505;stroke:#000000;stroke-width:0.25;stroke-miterlimit:10;}
	.lcd_background{fill:#3F3333;stroke:#000000;stroke-width:0.25;stroke-miterlimit:10;}
	.lcd_screen{fill:#00207F;stroke:#000000;stroke-width:0.25;stroke-miterlimit:10;}
	.lcd_knob{fill:#DE3B22;stroke:#000000;stroke-width:0.5;stroke-miterlimit:10;}
	.prusa_orange_shadow{fill:#D23F1E;stroke:#070707;stroke-width:0.25;stroke-miterlimit:10;}
</style>
<g id="Frame">
	<polygon id="Frame_Exterior" class="metal" points="71.3125,292.5833435 68.8125,289.8333435 62.4375038,289.8333435 
		59.3125038,292.5833435 42.8125038,292.5833435 39.5625038,289.0833435 39.5625038,0.1458471 331.5625,0.1458471 
		331.5625,288.4583435 327.8125,292.5833435 312.0625,292.5833435 309.0625,289.9583435 302.6875,289.8333435 
		299.4362488,292.5833435 257.4375,292.5833435 257.4375,264.2083435 266.5625,264.2083435 273.9375,255.7926025 
		288.4375,255.7926025 292.8125,251.6676025 292.8125,35.7083321 288.0625,31.708334 82.9375,31.708334 79.0625,35.5833321 
		79.0625,251.8333282 82.8125,255.9583282 97.6873169,255.9583282 105.1875,263.5833435 114.4375,263.5833435 114.4375,292.5833435 
			"/>
	<path id="Frame_Prusa_A" class="metal" d="M154.2708435,23.583334l-1.625-3.833334h-7.4166718L143.5625,23.583334l-1.25-0.75
		L148.2708435,8.375h1.7083282l5.9166718,14.458334L154.2708435,23.583334z M145.8958435,18.333334h6.375l-3.1875-8.000001
		L145.8958435,18.333334z"/>
	<path id="Frame_Prusa_U" class="metal" d="M122.2291718,8.375v9.958334c0,5.0833321-7.5833359,4.5833321-7.5833359,0
		V8.166667h-1.875v10.166667c0,7.416666,11.3333359,7.5,11.3333359,0V8.375H122.2291718z"/>
	<path id="Frame_Prusa_S" class="metal" d="M138.7708435,11.0274553c-1.1666718-3.166667-7.875-3.8750005-9.7083435-0.625
		c-0.9355621,1.6584921-0.364151,5.7227316,4.5833435,6.083333c3.625,0.2642117,5.125,2.625,3.1666565,4.541666
		c-2.5272217,2.4734573-5.4583282,0.5-7.0416565-1.541666l-1.4583435,0.5
		c-0.2353058,1.5236397,2.9505615,3.4344654,4.9583435,3.666666c2.375,0.2746735,5.5833282-0.5274544,6.2083282-3.375
		c0.3035126-1.3828297,0.0357513-4-3.0833282-4.749999c-0.8892517-0.2138243-2.6656494-0.653861-3.5416718-0.916667
		c-1.6666718-0.5-2.3541107-2.0940371-2.1666718-3c0.25-1.208333,2.0416718-1.625,3.2083435-1.541667
		c1.3715057,0.0979652,2.9166565,0.541667,3.2083282,1.75L138.7708435,11.0274553z"/>
	<path id="Frame_Prusa_R" class="metal" d="M107.251503,23.3980503l-4.5223312-6.0647163h-4.25L98.4375,23.25h-1.625
		L96.7248077,8.370635L104.5625,8.375c3.9725723,1.166667,4.25,7.916666,0,8.541666l3.9725723,5.6659756L107.251503,23.3980503z
		 M103.3541718,15.8843431c2.625,0,2.9583282-5.643651,0-5.643651H98.4375v5.643651H103.3541718z"/>
	<path id="Frame_Prusa_P" class="metal" d="M88.1041718,17.4281559h-4.25L83.8125,23.3448238h-1.625l-0.0876923-14.879365
		L89.9375,8.4698229C93.8958359,9.208333,93.8541718,17,89.5265808,17.422411L88.1041718,17.4281559z M88.7291718,15.979167
		c2.625,0,2.9583282-5.643651,0-5.643651H83.8125v5.643651H88.7291718z"/>
	<polygon id="Left_Motor_Mount" class="prusa_orange" points="39.3125038,269.0833435 35.4375038,265.2708435 
		35.4375038,252.7708435 36.3125038,251.8333282 76.125,251.8333282 76.9375,252.8958435 76.9375,263.2708435 71.3125,268.7708435 	
		"/>
	<polygon id="Left_Motor" class="black" points="38.3125038,263.0208435 38.3125038,255.9583282 72,255.9583282 72,263.0208435 
		71.375,263.0208435 71.375,272.2708435 72,272.2708435 72,279.5833435 38.3125038,279.5833435 38.3125038,272.2083435 
		39.3125038,272.1458435 39.5,263.0833435 	"/>
	<polygon id="Left_Top_Mount" class="prusa_orange" points="36.75,0.1458471 71.0625,0.1458471 71.0625,10.1458473 
		68.3125,12.8958464 38.5,12.8958464 37.125,11.458333 37.125,9.8958473 35.3125038,9.8958473 35.3125038,1.3958471 	"/>
	<rect id="Left_Support_Rod" x="38.9375038" y="6.4583335" class="axle_silver" width="6.375" height="245.375"/>
	<rect id="Left_Lead_Screw" x="52.1041718" y="3.7916672" class="axle_silver" width="6.3333335" height="248.0416718"/>
	<polygon id="LCD_Mount" class="metal" points="112.3125,257.2083435 104.4375,271.0833435 104.4375,291.0833435 
		110.1875,296.5833435 260.5625,296.5833435 266.5625,291.2083435 266.5625,270.7083435 259.1875,257.2083435 	"/>
	<polygon id="Right_Top_Mount" class="prusa_orange" points="300.3125,0.125 300.3125,9.958333 302.9791565,12.708333 
		332.8125,12.708333 334.2291565,11.458333 334.2291565,9.791667 335.8125,9.791667 335.8125,1.6666666 334.7708435,0.125 	"/>
	<polygon id="Right_Motor_Mount" class="prusa_orange" points="332.1237488,268.9176025 335.9987488,265.1051025 
		335.9987488,252.6051025 335.1237488,251.6676025 295.3112488,251.6676025 294.4987488,252.7301025 294.4987488,263.1051025 
		300.1237488,268.6051025 	"/>
	<polygon id="Right_Motor" class="black" points="333.1237488,262.8551025 333.1237488,255.7926025 299.4362488,255.7926025 
		299.4362488,262.8551025 300.0612488,262.8551025 300.0612488,272.1051025 299.4362488,272.1051025 299.4362488,279.4176025 
		333.1237488,279.4176025 333.1237488,272.0426025 332.1237488,271.9801025 331.9362488,262.9176025 	"/>
	<rect id="Right_Support_Rod" x="326.104187" y="6.2926002" class="axle_silver" width="6.375" height="245.375"/>
	<rect id="Right_Lead_Screw" x="312.979187" y="3.7916672" class="axle_silver" width="6.3333335" height="247.8759308"/>
	<rect id="Print_Bed" x="84.1041718" y="243.4583282" class="dark_gray" width="200.5" height="2.1666667"/>
	<polygon id="Bed_Platform" class="metal" points="272.2708435,250.4583282 269.7704773,250.4583282 92.4375,250.4583282 
		92.4375,254.7916718 272.2708435,254.7916718 	"/>
	<polygon id="Right_Bed_Standoff" class="axle_silver" points="269.6875,245.625 264.9375,245.625 264.9375,250.4583282 
		269.7704773,250.4583282 	"/>
	<polygon id="Middle_Bed_Standoff" class="axle_silver" points="186.6876831,245.625 181.9376831,245.625 181.9376831,250.4583282 
		186.7706451,250.4583282 	"/>
	<polygon id="Left_Bed_Standoff" class="axle_silver" points="100.0208359,245.625 95.2708359,245.625 95.2708359,250.4583282 
		100.1037979,250.4583282 	"/>
</g>
<g id="LCD">
	<polygon id="LCD_Cover" class="prusa_orange" points="124.4375,298.8958435 124.4375,260.3333435 126.75,257.8958435 
		244.125,257.8958435 246.375,260.2083435 246.375,298.8958435 	"/>
	<rect id="Original_Bar" x="132.75" y="283.8399658" class="prusa_orange" width="36.3333397" height="1.1666664"/>
	<rect id="LCD_Background" x="142.125" y="264.2083435" class="lcd_background" width="67" height="17.25"/>
	<rect id="LCD_Screen" x="145.5625" y="266.7083435" class="lcd_screen" width="59.5" height="14.25"/>
	<path id="Knob" class="lcd_knob" d="M226.875,268.5208435l-4.0625-2.4375l0.625-3.3125l5.4375,2.4375
		c-0.5625,6,11.5083313,7.1875,11.3144226-0.0361633l1.3730774,2.2861633
		C246.0625,278.3958435,224.4375,278.7083435,226.875,268.5208435z M230.4375,263.3958435l-5.4375-2.5l-1.5625,1.9746399
		l5.4375,2.4375c-0.4375,5.9003601,11,6.7128601,11.5,1C240.6180115,263.5314331,235.5,260.2083435,230.4375,263.3958435z"/>
	<path id="XButton" class="prusa_orange" d="M219.8125,274.4583435h3.625V275.75l1.7916718,1.1458435H235.0625l4.375,3.3125v4.125h-9.8125
		l-9.8125-6.666687V274.4583435z M233.0208435,280.3333435l-1.3679962-1.291687L230.6875,279.6875l1.375,1.2708435l-1.375,1.125
		l0.7083435,0.7916565l1.625-1.1666565l1.625,1.1666565l1.2916565-0.7916565l-1.5833282-1.125L235.6875,279.75l-0.7916565-0.7083435
		L233.0208435,280.3333435z"/>
	<path id="LCD_Prusa_A" class="prusa_orange" d="M210.6875,290.2566223l-0.7083282-1.375h-3.25l-0.7916718,1.375h-1.625l3.25-6.125
		h1.5625l3.3541718,6.125H210.6875z M208.2916718,285.7982788l-1.1875,2.166687h2.375L208.2916718,285.7982788z"/>
	<path id="LCD_Prusa_S" class="prusa_orange" d="M201.6875,285.6316223h1.4583435c0,0,0.0833282-1.9583435-3.0416718-1.9583435
		c-1.9583282,0-3.2082214,1.2080383-3.2083282,1.9583435c-0.0002747,1.875,2.2245178,1.7806091,3.125,1.7916565
		c2.3333282,0.0286865,2.3333282,1.7083435,0,1.791687c-1.4163818,0.0505676-1.7083435-1.0833435-1.7083435-1.0833435h-1.4166565
		c0,0-0.3327942,2.0671692,2.75,2.125c2.9583282,0.0555115,3.8751221-0.5416565,3.875-1.375
		c-0.0002899-1.75-1.0679474-2.114502-2.3333435-2.4166565c-2.1888428-0.522644-3.0189972-0.8086853-2.0833282-1.375
		C200.6875,284.1316223,201.6875,285.6316223,201.6875,285.6316223z"/>
	<path id="LCD_Prusa_U" class="prusa_orange" d="M189.9791718,284.1316223h-1.625v4.75c0,2.5,6.9583282,2.5416565,6.9583282,0v-4.75
		h-1.7916565l-0.0416718,3.8333435c0,1.75-3.5416718,1.875-3.5416718,0L189.9791718,284.1316223z"/>
	<path id="LCD_Prusa_R" class="prusa_orange" d="M185.40625,290.2566223l-2.5520782-2.804657h-1.75l0.0416718,2.804657H179.5625
		v-6.125h4.875c2.7916718-0.3333435,3.0833435,3.320343,0,3.320343c0,0,2.0596313,1.5016479,2.7916718,2.804657H185.40625z
		 M183.9791718,286.5899658c1.0833282,0,1.375-1.584137,0-1.5833435H181.1875v1.5833435H183.9791718z"/>
	<path id="LCD_Prusa_P" class="prusa_orange" d="M171.4791718,290.3121338v-6.2019958H176.5625
		c2.5,0,2.5833435,3.8548279,0,3.8548279h-3.375v2.347168H171.4791718z M176.1041718,286.9927063
		c0.9166718,0,1.1666718-1.986084,0-1.986084h-2.7083282v1.986084H176.1041718z"/>
	<path id="Original_R" class="prusa_orange" d="M141.913269,290.2566223l-1.6089172-1.768158h-1.1032562l0.0262604,1.768158h-0.9981842
		v-3.8614197h3.0733643c1.759964-0.210144,1.9438477,2.0932617,0,2.0932617c0,0,1.2984772,0.9466858,1.759964,1.768158H141.913269z
		 M141.0135956,287.9450378c0.6829681,0,0.8668365-0.9986877,0-0.9981995h-1.759964v0.9981995H141.0135956z"/>
	<polygon id="Original_L" class="prusa_orange" points="165.1041718,286.3816528 165.1041718,290.2566223 168.7291718,290.2566223 
		168.7291718,289.5482788 166.3125,289.5482788 166.3125,286.3816528 	"/>
	<polygon id="Original_N" class="prusa_orange" points="154,290.2566223 154,285.9996643 155,285.9996643 157.4166718,289.0691223 
		157.4166718,285.9996643 158.3333435,285.9996643 158.3333435,290.2566223 157.1666718,290.2566223 155,287.4459229 
		155,290.2566223 	"/>
	<rect id="Original_I_2" x="151.7916718" y="285.9996643" class="prusa_orange" width="1.2708334" height="4.2569561"/>
	<path id="Original_G" class="prusa_orange" d="M148.4375,288.6524658v-0.5243225h2.4791718v1.3368225
		c-1.4375,1.208313-3.5,1.270813-4.6875,0c-0.4298096-0.4599915-0.3957977-2.028595,0-2.5181274
		c0.9791718-1.2110596,3.1041718-1.2318726,4.2291718,0l0.1666565,0.3097839l-0.7916565,0.3541565l-0.25-0.4166565
		c-0.625-0.5208435-1.8958435-0.7083435-2.4583435,0c-0.2853241,0.359314-0.4077606,1.5089111-0.0833282,1.8333435
		c0.5833282,0.583313,1.9375,0.7291565,2.625,0c0.0675354-0.0716248,0.0163879-0.3934326,0.0163879-0.3934326L148.4375,288.6524658z
		"/>
	<path id="Original_O" class="prusa_orange" d="M137.4166718,288.3191528c0,1.0700378-1.1939087,1.9374695-2.6666718,1.9374695
		s-2.6666565-0.8674316-2.6666565-1.9374695s1.1938934-1.9375,2.6666565-1.9375S137.4166718,287.249115,137.4166718,288.3191528z
		 M134.7395935,286.9468384c-0.7881622,0-1.4270935,0.5730286-1.4270935,1.2799072
		c0,0.7068481,0.6389313,1.2798767,1.4270935,1.2798767c0.788147,0,1.4270782-0.5730286,1.4270782-1.2798767
		C136.1666718,287.5198669,135.5277405,286.9468384,134.7395935,286.9468384z"/>
	<rect id="Original_I_1" x="143.7916718" y="286.0982666" class="prusa_orange" width="1.2708334" height="4.2569561"/>
	<path id="Original_A" class="prusa_orange" d="M163.1356354,290.2358093l-0.4433136-0.928833h-2.0340118l-0.4954681,0.928833h-1.0169983
		l2.0340118-4.1375427h0.97789l2.0991974,4.1375427H163.1356354z M161.6362,287.2241211l-0.7431946,1.463623h1.4863892
		L161.6362,287.2241211z"/>
	<rect id="LCD_Container_Shadow" x="124.4375" y="292.5833435" class="prusa_orange_shadow" width="121.9374924" height="6.3125062"/>
</g>
</svg>
