<svg width="197" height="40" viewBox="0 0 197 40" fill="none" xmlns="http://www.w3.org/2000/svg">
<path d="M88.5918 29.6078L88.4213 29.7794H80.4076L80.2371 29.6078V17.9378L80.4076 17.7662H88.4213L88.5918 17.9378V19.654L88.4213 19.8256H82.7947L82.6241 19.9972V22.3999L82.7947 22.5715H88.0803L88.2508 22.7431V24.4593L88.0803 24.6309H82.7947L82.6241 24.8025V27.5484L82.7947 27.72H88.4213L88.5918 27.8916V29.6078ZM90.977 17.9378L91.1475 17.7662H93.5346L93.8756 17.9378L98.4792 25.8322H98.6497V17.9378L98.8202 17.7662H100.866L101.037 17.9378V29.6078L100.866 29.7794H98.4792L98.1382 29.6078L93.5346 21.7134H93.364V29.6078L93.1935 29.7794H91.1475L90.977 29.6078V17.9378ZM113.995 29.6078L113.825 29.7794H112.29L112.12 29.6078L111.949 28.7497H111.779C111.438 29.093 110.585 29.951 108.71 29.951C105.299 29.951 103.083 27.3768 103.083 23.7728C103.083 20.1689 105.299 17.5946 108.88 17.5946C112.29 17.5946 113.654 19.4824 113.995 21.1986L113.825 21.3702H111.779L111.608 21.1986C111.267 20.5121 110.756 19.654 108.88 19.654C106.664 19.654 105.47 21.3702 105.47 23.7728C105.47 26.1755 106.664 27.8916 108.88 27.8916C110.756 27.8916 111.608 26.8619 111.608 25.489L111.438 25.3174H108.539L108.369 25.1458V23.4296L108.539 23.258H113.825L113.995 23.4296V29.6078ZM118.774 29.6078L118.603 29.7794H116.557L116.386 29.6078V17.9378L116.557 17.7662H118.603L118.774 17.9378V29.6078ZM121.498 17.9378L121.669 17.7662H124.056L124.397 17.9378L129 25.8322H129.171V17.9378L129.341 17.7662H131.388L131.558 17.9378V29.6078L131.388 29.7794H129L128.659 29.6078L124.056 21.7134H123.885V29.6078L123.715 29.7794H121.669L121.498 29.6078V17.9378ZM142.641 29.6078L142.471 29.7794H134.457L134.287 29.6078V17.9378L134.457 17.7662H142.471L142.641 17.9378V19.654L142.471 19.8256H136.844L136.674 19.9972V22.3999L136.844 22.5715H142.13L142.3 22.7431V24.4593L142.13 24.6309H136.844L136.674 24.8025V27.5484L136.844 27.72H142.471L142.641 27.8916V29.6078ZM153.381 29.6078L153.21 29.7794H145.196L145.026 29.6078V17.9378L145.196 17.7662H153.21L153.381 17.9378V19.654L153.21 19.8256H147.583L147.413 19.9972V22.3999L147.583 22.5715H152.869L153.04 22.7431V24.4593L152.869 24.6309H147.583L147.413 24.8025V27.5484L147.583 27.72H153.21L153.381 27.8916V29.6078ZM165.656 21.3702C165.656 23.258 164.462 24.4593 163.098 24.8025V24.9741L165.315 27.8916V29.6078L165.144 29.7794H164.121L163.78 29.6078L160.37 25.1458L160.029 24.9741H158.324L158.153 25.1458V29.6078L157.983 29.7794H155.937L155.766 29.6078V17.9378L155.937 17.7662H161.564C163.951 17.7662 165.656 18.9675 165.656 21.3702ZM163.269 21.3702C163.269 20.1689 162.587 19.8256 161.564 19.8256H158.324L158.153 19.9972V22.7431L158.324 22.9147H161.564C162.587 22.9147 163.269 22.5715 163.269 21.3702ZM170.091 29.6078L169.921 29.7794H167.875L167.704 29.6078V17.9378L167.875 17.7662H169.921L170.091 17.9378V29.6078ZM172.817 17.9378L172.987 17.7662H175.375L175.716 17.9378L180.319 25.8322H180.49V17.9378L180.66 17.7662H182.706L182.877 17.9378V29.6078L182.706 29.7794H180.319L179.978 29.6078L175.375 21.7134H175.204V29.6078L175.034 29.7794H172.987L172.817 29.6078V17.9378ZM195.835 29.6078L195.665 29.7794H194.13L193.96 29.6078L193.789 28.7497H193.619C193.278 29.093 192.425 29.951 190.55 29.951C187.139 29.951 184.923 27.3768 184.923 23.7728C184.923 20.1689 187.139 17.5946 190.72 17.5946C194.13 17.5946 195.494 19.4824 195.835 21.1986L195.665 21.3702H193.619L193.448 21.1986C193.107 20.5121 192.596 19.654 190.72 19.654C188.504 19.654 187.31 21.3702 187.31 23.7728C187.31 26.1755 188.504 27.8916 190.72 27.8916C192.596 27.8916 193.448 26.8619 193.448 25.489L193.278 25.3174H190.379L190.209 25.1458V23.4296L190.379 23.258H195.665L195.835 23.4296V29.6078Z" fill="#2D4A80"/>
<path d="M89.4444 8.84488C89.4444 10.7327 88.0804 12.4488 84.4997 12.4488C81.0896 12.4488 79.5551 10.7327 79.5551 8.50165L79.7256 8.33003H81.7716L81.9421 8.50165C81.9421 9.70297 82.6242 10.3894 84.6702 10.3894C86.2048 10.3894 87.0573 9.87459 87.0573 8.84488C87.0573 7.64356 86.3753 7.30033 83.9882 6.95709C81.6011 6.61386 79.7256 5.75577 79.7256 3.35313C79.7256 1.63696 81.0896 0.0924072 84.3292 0.0924072C87.5688 0.0924072 88.9329 1.63696 88.9329 3.69637L88.7624 3.86799H86.7163L86.5458 3.69637C86.5458 2.66667 86.0343 2.15181 84.1587 2.15181C82.6242 2.15181 82.1126 2.66667 82.1126 3.35313C82.1126 4.38284 82.7947 4.72607 85.1817 5.06931C87.5688 5.41254 89.4444 6.44224 89.4444 8.84488ZM96.6084 10.3894C97.9725 10.3894 98.825 9.87459 99.166 8.67327L99.3365 8.50165H101.383L101.553 8.67327C101.212 11.0759 99.3365 12.4488 96.6084 12.4488C92.8573 12.4488 90.8112 9.87459 90.8112 6.27063C90.8112 2.66667 92.8573 0.0924072 96.6084 0.0924072C99.3365 0.0924072 101.212 1.46535 101.553 3.69637L101.383 3.86799H99.3365L99.166 3.69637C98.825 2.66667 97.9725 2.15181 96.6084 2.15181C94.2213 2.15181 93.1983 3.86799 93.1983 6.27063C93.1983 8.67327 94.2213 10.3894 96.6084 10.3894ZM113.317 12.1056L113.147 12.2772H111.101L110.93 12.1056V7.30033L110.76 7.12871H106.156L105.986 7.30033V12.1056L105.815 12.2772H103.769L103.598 12.1056V0.435641L103.769 0.264024H105.815L105.986 0.435641V4.89769L106.156 5.06931H110.76L110.93 4.89769V0.435641L111.101 0.264024H113.147L113.317 0.435641V12.1056ZM124.579 6.27063C124.579 3.86799 123.385 2.15181 121.169 2.15181C118.952 2.15181 117.758 3.86799 117.758 6.27063C117.758 8.67327 118.952 10.3894 121.169 10.3894C123.385 10.3894 124.579 8.67327 124.579 6.27063ZM126.966 6.27063C126.966 9.87459 124.749 12.4488 121.169 12.4488C117.588 12.4488 115.371 9.87459 115.371 6.27063C115.371 2.66667 117.588 0.0924072 121.169 0.0924072C124.749 0.0924072 126.966 2.66667 126.966 6.27063ZM137.533 6.27063C137.533 3.86799 136.339 2.15181 134.123 2.15181C131.906 2.15181 130.713 3.86799 130.713 6.27063C130.713 8.67327 131.906 10.3894 134.123 10.3894C136.339 10.3894 137.533 8.67327 137.533 6.27063ZM139.92 6.27063C139.92 9.87459 137.703 12.4488 134.123 12.4488C130.542 12.4488 128.326 9.87459 128.326 6.27063C128.326 2.66667 130.542 0.0924072 134.123 0.0924072C137.703 0.0924072 139.92 2.66667 139.92 6.27063ZM149.976 12.1056L149.805 12.2772H142.132L141.962 12.1056V0.435641L142.132 0.264024H144.179L144.349 0.435641V10.0462L144.52 10.2178H149.805L149.976 10.3894V12.1056ZM163.959 6.27063C163.959 3.86799 162.765 2.15181 160.548 2.15181C158.332 2.15181 157.138 3.86799 157.138 6.27063C157.138 8.67327 158.332 10.3894 160.548 10.3894C162.765 10.3894 163.959 8.67327 163.959 6.27063ZM166.346 6.27063C166.346 9.87459 164.129 12.4488 160.548 12.4488C156.968 12.4488 154.751 9.87459 154.751 6.27063C154.751 2.66667 156.968 0.0924072 160.548 0.0924072C164.129 0.0924072 166.346 2.66667 166.346 6.27063ZM176.402 2.15181L176.231 2.32343H170.945L170.775 2.49505V5.06931L170.945 5.24092H175.89L176.061 5.41254V7.12871L175.89 7.30033H170.945L170.775 7.47195V12.1056L170.604 12.2772H168.558L168.388 12.1056V0.435641L168.558 0.264024H176.231L176.402 0.435641V2.15181Z" fill="#2D4A80"/>
<path d="M56.0027 8.31188C56.0013 8.27861 55.9998 8.24535 55.9985 8.21353C55.8677 5.46404 54.8503 3.44785 53.1446 2.13459C53.1044 2.10421 53.0641 2.07383 53.024 2.04636C51.4102 0.856023 49.2059 0.274597 46.5704 0.274597H30.86L30.4491 0.688249V29.3662L30.86 29.7798H34.7197L35.1308 29.3662V17.7955L35.5403 17.3818H46.5704C48.9817 17.3818 51.1257 16.8264 52.761 15.6911C52.8371 15.6389 52.9104 15.5869 52.9837 15.532C54.5341 14.372 55.5846 12.661 55.9079 10.3758C55.9194 10.2948 55.9295 10.2124 55.9395 10.1285C55.9496 10.046 55.9582 9.96215 55.9653 9.87826C55.9711 9.81896 55.9769 9.75966 55.9797 9.70036C56.0027 9.41687 56.0128 9.12616 56.0128 8.82822C56.0128 8.65321 56.0099 8.4811 56.0027 8.31188ZM35.5403 13.0848L35.1308 12.6711V4.98531L35.5417 4.57166H46.2831C49.9646 4.57166 51.3325 5.72583 51.3325 8.82822C51.3325 11.9306 49.9646 13.0848 46.2831 13.0848H35.5403Z" fill="#2D4A80"/>
<path d="M65.5778 29.3662L65.1669 29.7798H61.3072L60.8961 29.3662V0.688249L61.3086 0.274597H65.1682L65.5793 0.688249V29.3662H65.5778Z" fill="#2D4A80"/>
<path d="M22.6007 29.7798L21.8204 29.3444L14.4387 17.7868L13.6368 17.3832H5.09119L4.68021 17.797V29.3677L4.27068 29.7813H0.410973L0 29.3677V0.688249L0.410973 0.274597H15.834C22.1997 0.274597 25.5637 3.23236 25.5637 8.82822C25.5637 13.0848 23.4944 15.8574 19.573 16.8684V17.2778L25.1528 26.1003V29.3417L24.7173 29.7798H22.6007ZM15.834 13.0848C19.5155 13.0848 20.8834 11.9306 20.8834 8.82822C20.8834 5.72583 19.5155 4.57166 15.834 4.57166H5.09262L4.68021 4.98531V12.6711L5.09119 13.0848H15.834Z" fill="#2D4A80"/>
<path d="M65.1695 35.2338L65.5792 35.6462V39.5738L65.1695 39.9862H0.409692L0 39.5738V35.6462L0.409692 35.2338H65.1709H65.1695Z" fill="#2D4A80"/>
</svg>
