<svg width="77" height="1495" viewBox="0 0 77 1495" fill="none" xmlns="http://www.w3.org/2000/svg">
<path d="M5.03385e-05 2.98195V-5.94868e-05H76.8649V2.98195H5.03385e-05ZM5.03385e-05 10.437V7.45645H19.2163V10.437H5.03385e-05ZM5.03385e-05 17.8934V14.9099H38.4325V17.8934H5.03385e-05ZM5.03385e-05 25.347V22.3665H19.2163V25.347H5.03385e-05ZM5.03385e-05 32.8034V29.8215H57.6486V32.8034H5.03385e-05ZM5.03385e-05 40.2584V37.2779H19.2163V40.2584H5.03385e-05ZM5.03385e-05 47.7149V44.7315H38.4325V47.7149H5.03385e-05ZM5.03385e-05 55.1684V52.1879H19.2163V55.1684H5.03385e-05ZM5.03385e-05 62.6249V59.6429H57.6486V62.6249H5.03385e-05ZM5.03385e-05 70.0815V67.0979H19.2163V70.0815H5.03385e-05ZM5.03385e-05 77.5334V74.5514H76.8649V77.5334H5.03385e-05ZM5.03385e-05 84.99V82.0079H19.2163V84.99H5.03385e-05ZM5.03385e-05 92.445V89.4629H38.4325V92.445H5.03385e-05ZM5.03385e-05 99.9015V96.9179H19.2163V99.9015H5.03385e-05ZM5.03385e-05 107.355V104.373H57.6486V107.355H5.03385e-05ZM5.03385e-05 114.811V111.829H19.2163V114.811H5.03385e-05ZM5.03385e-05 122.266V119.283H38.4325V122.266H5.03385e-05ZM5.03385e-05 129.721V126.739H19.2163V129.721H5.03385e-05ZM5.03385e-05 137.176V134.194H57.6486V137.176H5.03385e-05ZM5.03385e-05 144.633V141.651H19.2163V144.633H5.03385e-05ZM5.03385e-05 152.089V149.106H76.8649V152.089H5.03385e-05ZM5.03385e-05 159.544V156.562H19.2163V159.544H5.03385e-05ZM5.03385e-05 166.999V164.017H38.4325V166.999H5.03385e-05ZM5.03385e-05 174.456V171.472H19.2163V174.456H5.03385e-05ZM5.03385e-05 181.909V178.929H57.6486V181.909H5.03385e-05ZM5.03385e-05 189.366V186.384H19.2163V189.366H5.03385e-05ZM5.03385e-05 196.821V193.84H38.4325V196.821H5.03385e-05ZM5.03385e-05 204.277V201.294H19.2163V204.277H5.03385e-05ZM5.03385e-05 211.731V208.75H57.6486V211.731H5.03385e-05ZM5.03385e-05 219.187V216.205H19.2163V219.187H5.03385e-05ZM5.03385e-05 226.642V223.66H76.8649V226.642H5.03385e-05ZM5.03385e-05 234.097V231.115H19.2163V234.097H5.03385e-05ZM5.03385e-05 241.554V238.572H38.4325V241.554H5.03385e-05ZM5.03385e-05 249.009V246.027H19.2163V249.009H5.03385e-05ZM5.03385e-05 256.465V253.482H57.6486V256.465H5.03385e-05ZM5.03385e-05 263.919V260.937H19.2163V263.919H5.03385e-05ZM5.03385e-05 271.375V268.393H38.4325V271.375H5.03385e-05ZM5.03385e-05 278.83V275.847H19.2163V278.83H5.03385e-05ZM5.03385e-05 286.285V283.303H57.6486V286.285H5.03385e-05ZM5.03385e-05 293.74V290.758H19.2163V293.74H5.03385e-05ZM5.03385e-05 301.198V298.216H76.8649V301.198H5.03385e-05ZM5.03385e-05 308.653V305.67H19.2163V308.653H5.03385e-05ZM5.03385e-05 316.108V313.126H38.4325V316.108H5.03385e-05ZM5.03385e-05 323.563V320.581H19.2163V323.563H5.03385e-05ZM5.03385e-05 331.02V328.036H57.6486V331.02H5.03385e-05ZM5.03385e-05 338.473V335.491H19.2163V338.473H5.03385e-05ZM5.03385e-05 345.93V342.948H38.4325V345.93H5.03385e-05ZM5.03385e-05 353.385V350.404H19.2163V353.385H5.03385e-05ZM5.03385e-05 360.841V357.858H57.6486V360.841H5.03385e-05ZM5.03385e-05 368.295V365.314H19.2163V368.295H5.03385e-05ZM5.03385e-05 375.75V372.768H76.8649V375.75H5.03385e-05ZM5.03385e-05 383.205V380.223H19.2163V383.205H5.03385e-05ZM5.03385e-05 390.66V387.678H38.4325V390.66H5.03385e-05ZM5.03385e-05 398.115V395.134H19.2163V398.115H5.03385e-05ZM5.03385e-05 405.571V402.589H57.6486V405.571H5.03385e-05ZM5.03385e-05 413.028V410.044H19.2163V413.028H5.03385e-05ZM5.03385e-05 420.481V417.499H38.4325V420.481H5.03385e-05ZM5.03385e-05 427.938V424.956H19.2163V427.938H5.03385e-05ZM5.03385e-05 435.393V432.409H57.6486V435.393H5.03385e-05ZM5.03385e-05 442.848V439.866H19.2163V442.848H5.03385e-05ZM5.03385e-05 450.301V447.319H76.8649V450.301H5.03385e-05ZM5.03385e-05 457.758V454.776H19.2163V457.758H5.03385e-05ZM5.03385e-05 465.213V462.229H38.4325V465.213H5.03385e-05ZM5.03385e-05 472.668V469.686H19.2163V472.668H5.03385e-05ZM5.03385e-05 480.123V477.141H57.6486V480.123H5.03385e-05ZM5.03385e-05 487.579V484.596H19.2163V487.579H5.03385e-05ZM5.03385e-05 495.033V492.051H38.4325V495.033H5.03385e-05ZM5.03385e-05 502.489V499.507H19.2163V502.489H5.03385e-05ZM5.03385e-05 509.944V506.962H57.6486V509.944H5.03385e-05ZM5.03385e-05 517.401V514.417H19.2163V517.401H5.03385e-05ZM5.03385e-05 524.857V521.877H76.8649V524.857H5.03385e-05ZM5.03385e-05 532.314V529.332H19.2163V532.314H5.03385e-05ZM5.03385e-05 539.769V536.787H38.4325V539.769H5.03385e-05ZM5.03385e-05 547.224V544.242H19.2163V547.224H5.03385e-05ZM5.03385e-05 554.679V551.698H57.6486V554.679H5.03385e-05ZM5.03385e-05 562.135V559.153H19.2163V562.135H5.03385e-05ZM5.03385e-05 569.59V566.608H38.4325V569.59H5.03385e-05ZM5.03385e-05 577.045V574.063H19.2163L19.2163 577.045H5.03385e-05ZM5.03385e-05 584.502V581.52H57.6486V584.502H5.03385e-05ZM5.03385e-05 591.957V588.973H19.2163V591.957H5.03385e-05ZM5.03385e-05 599.411V596.428H76.8649V599.411H5.03385e-05ZM5.03385e-05 606.866V603.883H19.2163V606.866H5.03385e-05ZM5.03385e-05 614.322V611.339H38.4325V614.322H5.03385e-05ZM5.03385e-05 621.776V618.794H19.2163V621.776H5.03385e-05ZM5.03385e-05 629.232V626.25H57.6486V629.232H5.03385e-05ZM5.03385e-05 636.687V633.705H19.2163V636.687H5.03385e-05ZM5.03385e-05 644.143V641.161H38.4325V644.143H5.03385e-05ZM5.03385e-05 651.598V648.615H19.2163V651.598H5.03385e-05ZM5.03385e-05 659.054V656.071H57.6486V659.054H5.03385e-05ZM5.03385e-05 666.508V663.526H19.2163V666.508H5.03385e-05ZM5.03385e-05 673.966V670.983H76.8649V673.966H5.03385e-05ZM5.03385e-05 681.42V678.438H19.2163V681.42H5.03385e-05ZM5.03385e-05 688.876V685.894H38.4325V688.876H5.03385e-05ZM5.03385e-05 696.331V693.35H19.2163V696.331H5.03385e-05ZM5.03385e-05 703.787V700.805H57.6486V703.787H5.03385e-05ZM5.03385e-05 711.242V708.261H19.2163V711.242H5.03385e-05ZM5.03385e-05 718.698V715.715H38.4325V718.698H5.03385e-05ZM5.03385e-05 726.152V723.171H19.2163V726.152H5.03385e-05ZM5.03385e-05 733.608V730.626H57.6486V733.608H5.03385e-05ZM5.03385e-05 741.063V738.082H19.2163V741.063H5.03385e-05ZM76.8649 748.518H5.03385e-05V745.535H76.8649V748.518Z" fill="white"/>
<path d="M5.34058e-05 748.516V745.534H76.8649V748.516H5.34058e-05ZM5.34058e-05 755.971V752.99H19.2163V755.971H5.34058e-05ZM5.34058e-05 763.427V760.444H38.4325V763.427H5.34058e-05ZM5.34058e-05 770.881V767.9H19.2163V770.881H5.34058e-05ZM5.34058e-05 778.337V775.355H57.6486V778.337H5.34058e-05ZM5.34058e-05 785.792V782.812H19.2163V785.792H5.34058e-05ZM5.34058e-05 793.249V790.265H38.4325V793.249H5.34058e-05ZM5.34058e-05 800.702V797.722H19.2163V800.702H5.34058e-05ZM5.34058e-05 808.159V805.177H57.6486V808.159H5.34058e-05ZM5.34058e-05 815.615V812.632H19.2163V815.615H5.34058e-05ZM5.34058e-05 823.067V820.085H76.8649V823.067H5.34058e-05ZM5.34058e-05 830.524V827.542H19.2163V830.524H5.34058e-05ZM5.34058e-05 837.979V834.997H38.4325V837.979H5.34058e-05ZM5.34058e-05 845.435V842.452H19.2163V845.435H5.34058e-05ZM5.34058e-05 852.889V849.907H57.6486V852.889H5.34058e-05ZM5.34058e-05 860.345V857.363H19.2163V860.345H5.34058e-05ZM5.34058e-05 867.8V864.817H38.4325V867.8H5.34058e-05ZM5.34058e-05 875.255V872.273H19.2163V875.255H5.34058e-05ZM5.34058e-05 882.71V879.728H57.6486V882.71H5.34058e-05ZM5.34058e-05 890.167V887.185H19.2163V890.167H5.34058e-05ZM5.34058e-05 897.623V894.64H76.8649V897.623H5.34058e-05ZM5.34058e-05 905.078V902.096H19.2163V905.078H5.34058e-05ZM5.34058e-05 912.533V909.551H38.4325V912.533H5.34058e-05ZM5.34058e-05 919.99V917.006H19.2163V919.99H5.34058e-05ZM5.34058e-05 927.443V924.463H57.6486V927.443H5.34058e-05ZM5.34058e-05 934.9V931.918H19.2163V934.9H5.34058e-05ZM5.34058e-05 942.355V939.374H38.4325V942.355H5.34058e-05ZM5.34058e-05 949.811V946.828H19.2163V949.811H5.34058e-05ZM5.34058e-05 957.265V954.284H57.6486V957.265H5.34058e-05ZM5.34058e-05 964.721V961.739H19.2163V964.721H5.34058e-05ZM5.34058e-05 972.176V969.194H76.8649V972.176H5.34058e-05ZM5.34058e-05 979.631V976.649H19.2163V979.631H5.34058e-05ZM5.34058e-05 987.088V984.106H38.4325V987.088H5.34058e-05ZM5.34058e-05 994.543V991.561H19.2163V994.543H5.34058e-05ZM5.34058e-05 1002V999.016H57.6486V1002H5.34058e-05ZM5.34058e-05 1009.45V1006.47H19.2163V1009.45H5.34058e-05ZM5.34058e-05 1016.91V1013.93H38.4325V1016.91H5.34058e-05ZM5.34058e-05 1024.36V1021.38H19.2163V1024.36H5.34058e-05ZM5.34058e-05 1031.82V1028.84H57.6486V1031.82H5.34058e-05ZM5.34058e-05 1039.27V1036.29H19.2163V1039.27H5.34058e-05ZM5.34058e-05 1046.73V1043.75H76.8649V1046.73H5.34058e-05ZM5.34058e-05 1054.19V1051.2H19.2163V1054.19H5.34058e-05ZM5.34058e-05 1061.64V1058.66H38.4325V1061.64H5.34058e-05ZM5.34058e-05 1069.1V1066.12H19.2163V1069.1H5.34058e-05ZM5.34058e-05 1076.55V1073.57H57.6486V1076.55H5.34058e-05ZM5.34058e-05 1084.01V1081.03H19.2163V1084.01H5.34058e-05ZM5.34058e-05 1091.46V1088.48H38.4325V1091.46H5.34058e-05ZM5.34058e-05 1098.92V1095.94H19.2163V1098.92H5.34058e-05ZM5.34058e-05 1106.38V1103.39H57.6486V1106.38H5.34058e-05ZM5.34058e-05 1113.83V1110.85H19.2163V1113.83H5.34058e-05ZM5.34058e-05 1121.28V1118.3H76.8649V1121.28H5.34058e-05ZM5.34058e-05 1128.74V1125.76H19.2163V1128.74H5.34058e-05ZM5.34058e-05 1136.19V1133.21H38.4325V1136.19H5.34058e-05ZM5.34058e-05 1143.65V1140.67H19.2163V1143.65H5.34058e-05ZM5.34058e-05 1151.11V1148.12H57.6486V1151.11H5.34058e-05ZM5.34058e-05 1158.56V1155.58H19.2163V1158.56H5.34058e-05ZM5.34058e-05 1166.02V1163.03H38.4325V1166.02H5.34058e-05ZM5.34058e-05 1173.47V1170.49H19.2163V1173.47H5.34058e-05ZM5.34058e-05 1180.93V1177.94H57.6486V1180.93H5.34058e-05ZM5.34058e-05 1188.38V1185.4H19.2163V1188.38H5.34058e-05ZM5.34058e-05 1195.84V1192.85H76.8649V1195.84H5.34058e-05ZM5.34058e-05 1203.29V1200.31H19.2163V1203.29H5.34058e-05ZM5.34058e-05 1210.75V1207.76H38.4325V1210.75H5.34058e-05ZM5.34058e-05 1218.2V1215.22H19.2163V1218.2H5.34058e-05ZM5.34058e-05 1225.66V1222.67H57.6486V1225.66H5.34058e-05ZM5.34058e-05 1233.11V1230.13H19.2163V1233.11H5.34058e-05ZM5.34058e-05 1240.57V1237.58H38.4325V1240.57H5.34058e-05ZM5.34058e-05 1248.02V1245.04H19.2163V1248.02H5.34058e-05ZM5.34058e-05 1255.48V1252.5H57.6486V1255.48H5.34058e-05ZM5.34058e-05 1262.93V1259.95H19.2163V1262.93H5.34058e-05ZM5.34058e-05 1270.39V1267.41H76.8649V1270.39H5.34058e-05ZM5.34058e-05 1277.85V1274.87H19.2163V1277.85H5.34058e-05ZM5.34058e-05 1285.3V1282.32H38.4325V1285.3H5.34058e-05ZM5.34058e-05 1292.76V1289.78H19.2163V1292.76H5.34058e-05ZM5.34058e-05 1300.21V1297.23H57.6486V1300.21H5.34058e-05ZM5.34058e-05 1307.67V1304.69H19.2163V1307.67H5.34058e-05ZM5.34058e-05 1315.12V1312.14H38.4325V1315.12H5.34058e-05ZM5.34058e-05 1322.58V1319.6H19.2163L19.2163 1322.58H5.34058e-05ZM5.34058e-05 1330.04V1327.05H57.6486V1330.04H5.34058e-05ZM5.34058e-05 1337.49V1334.51H19.2163V1337.49H5.34058e-05ZM5.34058e-05 1344.94V1341.96H76.8649V1344.94H5.34058e-05ZM5.34058e-05 1352.4V1349.42H19.2163V1352.4H5.34058e-05ZM5.34058e-05 1359.86V1356.87H38.4325V1359.86H5.34058e-05ZM5.34058e-05 1367.31V1364.33H19.2163V1367.31H5.34058e-05ZM5.34058e-05 1374.77V1371.78H57.6486V1374.77H5.34058e-05ZM5.34058e-05 1382.22V1379.24H19.2163V1382.22H5.34058e-05ZM5.34058e-05 1389.68V1386.69H38.4325V1389.68H5.34058e-05ZM5.34058e-05 1397.13V1394.15H19.2163V1397.13H5.34058e-05ZM5.34058e-05 1404.59V1401.61H57.6486V1404.59H5.34058e-05ZM5.34058e-05 1412.04V1409.06H19.2163V1412.04H5.34058e-05ZM5.34058e-05 1419.5V1416.52H76.8649V1419.5H5.34058e-05ZM5.34058e-05 1426.95V1423.97H19.2163V1426.95H5.34058e-05ZM5.34058e-05 1434.41V1431.43H38.4325V1434.41H5.34058e-05ZM5.34058e-05 1441.86V1438.88H19.2163V1441.86H5.34058e-05ZM5.34058e-05 1449.32V1446.34H57.6486V1449.32H5.34058e-05ZM5.34058e-05 1456.78V1453.79H19.2163V1456.78H5.34058e-05ZM5.34058e-05 1464.23V1461.25H38.4325V1464.23H5.34058e-05ZM5.34058e-05 1471.69V1468.71H19.2163V1471.69H5.34058e-05ZM5.34058e-05 1479.14V1476.16H57.6486V1479.14H5.34058e-05ZM5.34058e-05 1486.6V1483.62H19.2163V1486.6H5.34058e-05ZM76.8649 1494.05H5.34058e-05V1491.07H76.8649V1494.05Z" fill="white"/>
</svg>
