<?xml version="1.0"?>
<svg width="400" height="400" xmlns="http://www.w3.org/2000/svg" xmlns:svg="http://www.w3.org/2000/svg" version="1.1">
 <g class="layer">
  <title>Layer 1</title>
  <path d="m287.82,11.08l69.81,0l-42.3,190.12q-12.32,54.2 -16.82,66.5q16.42,75.57 47.62,75.57q36.96,0 38.18,-50.93l14.78,0q-1.17,47.62 -17.64,77.19q-16.02,29.16 -42.3,29.16q-21.76,0 -32.44,-17.66q-10.66,-17.64 -22.98,-72.27q-42.7,89.93 -139.61,89.93q-66.11,0 -105.11,-51.32q-39,-51.74 -39,-147.81q0,-94.45 42.7,-146.99q42.7,-52.56 102.65,-52.56q42.28,0 69.38,29.98q27.1,29.96 48.04,97.71l25.04,-116.61l0,-0.01zm-36.14,160.95q-19.28,-66.11 -43.1,-103.07q-23.82,-37.36 -57.09,-37.36q-75.12,0 -75.12,175.76q0,166.69 71.84,166.69q62.43,0 92.39,-146.99l11.08,-55.02l0,-0.01z" id="svg_1" opacity="0.15"/>
 </g>
</svg>