<?xml version="1.0"?>
<svg width="160" height="344" xmlns="http://www.w3.org/2000/svg" xmlns:svg="http://www.w3.org/2000/svg" version="1.1">
 <g class="layer">
  <title>Layer 1</title>
  <path d="m30.57,344.26l-30.57,0q6.67,-31.31 6.67,-56.7l0,-201.78q0,-31.5 5.56,-46.87q5.74,-15.38 22.05,-27.06q16.49,-11.85 41.13,-11.85q29.28,0 49.1,15.56q20.01,15.38 20.01,43.91q0,33.35 -31.68,54.66q47.25,22.24 47.25,69.85q0,25.94 -12.6,46.51q-12.42,20.38 -28.91,29.09q-16.3,8.71 -39.09,8.71q-25.94,0 -42.25,-19.46l0,34.47q0,35.57 -6.67,60.96zm6.67,-112.1q14.45,23.9 40.39,23.9q25.02,0 36.69,-18.16q11.67,-18.34 11.67,-44.47q0,-20.01 -7.78,-40.76q-7.6,-20.94 -19.64,-31.87q-11.12,2.78 -20.01,2.78q-18.71,0 -18.71,-9.82q0,-8.89 15.75,-8.89q9.82,0 24.45,4.45q13.16,-22.24 13.16,-48.36q0,-23.35 -10.38,-35.76q-10.19,-12.42 -26.68,-12.42q-13.15,0 -22.6,7.41q-9.27,7.42 -12.79,17.79q-3.52,10.19 -3.52,33.54l0,160.64z" id="svg_1" opacity="0.15"/>
 </g>
</svg>