<?xml version="1.0"?>
<svg width="142" height="182" xmlns="http://www.w3.org/2000/svg" xmlns:svg="http://www.w3.org/2000/svg" version="1.1">
 <g class="layer">
  <title>Layer 1</title>
  <path d="m46.4,85.86q-36.5,-12.97 -36.5,-39.28q0,-20.75 19.27,-33.17q19.45,-12.41 48.17,-12.41q26.13,0 41.51,8.71q15.38,8.52 15.38,20.57q0,6.3 -4.83,11.11q-4.81,4.63 -11.11,4.63q-10.38,0 -17.05,-14.45q-9.26,-20.01 -27.79,-20.01q-14.64,0 -24.09,9.64q-9.45,9.63 -9.45,26.86q0,33.91 35.02,33.91q3.7,0 8.52,-0.74q8.34,-1.11 12.97,-1.11q11.3,0 11.3,6.48q0,7.23 -11.48,7.23q-4.08,0 -12.23,-1.3q-6.12,-1.11 -9.45,-1.11q-37.06,0 -37.06,37.8q0,18.34 9.82,29.64q9.82,11.12 27.42,11.12q22.05,0 29.28,-22.79q3.7,-12.04 8.15,-16.67q4.63,-4.64 12.23,-4.64q6.3,0 11.3,4.64q5.19,4.44 5.19,11.48q0,16.86 -18.9,27.98q-18.9,10.93 -45.76,10.93q-29.46,0 -52.44,-14.08q-22.79,-14.08 -22.79,-37.61q0,-29.46 45.4,-43.36z" id="svg_1" opacity="0.15"/>
 </g>
</svg>