<?xml version="1.0"?>
<svg width="44" height="44" xmlns="http://www.w3.org/2000/svg" xmlns:svg="http://www.w3.org/2000/svg">
 <g class="layer">
  <title>Layer 1</title>
  <path d="m16.88,22.36l-0.07,-0.07c-0.85,0.6 -1.69,1.22 -2.54,1.85c-0.85,0.6 -1.69,1.22 -2.54,1.87c0.22,0.33 0.44,0.69 0.64,1.02c0.22,0.36 0.44,0.69 0.67,1.05c0.67,-0.98 1.31,-1.93 1.93,-2.89c0.62,-0.93 1.27,-1.89 1.89,-2.82l0,0l0.02,-0.01zm-14.32,-12.48c1.02,0.33 2.05,0.64 3.05,0.98c1,0.29 2,0.6 3,0.91c1,0.33 1.98,0.64 2.98,0.98c1.02,0.31 2.02,0.62 3,0.93c-0.02,-0.07 -0.04,-0.11 -0.07,-0.13c-0.02,-0.04 -0.07,-0.07 -0.07,-0.09c-0.69,-0.42 -1.38,-0.85 -2.07,-1.29c-0.69,-0.47 -1.36,-0.89 -2.05,-1.33c-0.69,-0.44 -1.38,-0.87 -2.07,-1.29c-0.67,-0.44 -1.36,-0.89 -2.05,-1.33c-0.16,-0.09 -0.31,-0.13 -0.49,-0.13c-0.16,0 -0.31,0.07 -0.47,0.16c-0.33,0.2 -0.64,0.4 -0.96,0.6c-0.33,0.18 -0.64,0.38 -0.98,0.58c-0.11,0.07 -0.22,0.13 -0.36,0.2c-0.11,0.09 -0.27,0.16 -0.42,0.27l0,0l0.03,-0.02zm12.5,25.09c0.31,-1 0.62,-1.98 0.93,-2.96c0.31,-0.98 0.62,-1.98 0.91,-2.94c0.31,-0.98 0.62,-1.96 0.96,-2.94c0.29,-0.96 0.6,-1.93 0.91,-2.91c-0.07,0.04 -0.11,0.09 -0.16,0.11c-0.04,0.02 -0.07,0.07 -0.09,0.11c-0.62,0.89 -1.22,1.78 -1.8,2.65c-0.58,0.89 -1.18,1.78 -1.8,2.67c-0.07,0.11 -0.16,0.24 -0.24,0.36c-0.07,0.13 -0.16,0.24 -0.22,0.38c-0.38,0.49 -0.87,0.71 -1.47,0.71c-0.6,0 -1.09,-0.29 -1.42,-0.8c-0.22,-0.38 -0.47,-0.73 -0.69,-1.11c-0.24,-0.38 -0.49,-0.76 -0.76,-1.13c-0.33,0.24 -0.69,0.51 -1.05,0.78c-0.36,0.27 -0.71,0.53 -1.07,0.8c1.18,1.02 2.34,2.07 3.51,3.09c1.16,1.05 2.34,2.09 3.54,3.14l0,0l0.01,-0.01zm4.89,-17.46c-1.42,-0.44 -2.85,-0.89 -4.25,-1.33c-1.4,-0.44 -2.8,-0.89 -4.2,-1.33c-1.4,-0.44 -2.8,-0.89 -4.2,-1.31c-1.4,-0.44 -2.8,-0.89 -4.18,-1.33c-0.02,0.02 -0.04,0.02 -0.04,0.04c0,0 0,0.02 -0.02,0.04c0.64,1 1.29,1.98 1.91,2.98c0.62,1 1.25,2 1.89,3c0.62,1 1.27,2 1.91,2.98c0.62,1.02 1.25,2.02 1.89,3.02c0.76,-0.56 1.53,-1.11 2.31,-1.69c0.78,-0.56 1.56,-1.11 2.34,-1.67c0.76,-0.56 1.53,-1.13 2.31,-1.69c0.76,-0.58 1.53,-1.13 2.34,-1.71l0,0l-0.01,0zm21.22,-5.25c-0.02,0 -0.02,-0.02 -0.04,-0.02c0,-0.02 0,-0.02 0,-0.04c-1.42,0.44 -2.85,0.89 -4.25,1.33c-1.4,0.42 -2.82,0.87 -4.25,1.31c-1.42,0.44 -2.85,0.89 -4.25,1.33c-1.42,0.44 -2.85,0.89 -4.29,1.33c0.8,0.6 1.62,1.18 2.42,1.76c0.8,0.58 1.6,1.16 2.4,1.73c0.8,0.58 1.6,1.13 2.4,1.71c0.8,0.56 1.6,1.13 2.4,1.73c0.62,-1.05 1.22,-2.07 1.87,-3.07c0.62,-1.02 1.25,-2.02 1.87,-3.05c0.62,-1.02 1.22,-2.02 1.85,-3.05c0.62,-1 1.25,-2.02 1.87,-3.02l0,0l0,0.02zm2.65,-1.25c-0.22,0.78 -0.56,1.51 -1.02,2.16c-0.44,0.67 -0.87,1.33 -1.29,2.02c-0.49,0.87 -1.02,1.69 -1.53,2.54c-0.51,0.85 -1.02,1.69 -1.53,2.51c-0.53,0.85 -1.05,1.67 -1.58,2.54c-0.51,0.82 -1.02,1.67 -1.56,2.51c-0.02,0.02 -0.02,0.04 -0.04,0.09c-0.02,0.04 -0.04,0.09 -0.07,0.16c0.33,0.24 0.69,0.49 1.02,0.76c0.36,0.24 0.69,0.49 1.02,0.73c0.13,0.13 0.27,0.24 0.4,0.4c0.13,0.13 0.24,0.29 0.31,0.44c0.2,0.4 0.22,0.8 0.13,1.22c-0.11,0.42 -0.31,0.8 -0.64,1.09c-1.2,1.07 -2.38,2.11 -3.58,3.14c-1.18,1.05 -2.36,2.09 -3.54,3.16c-0.6,0.58 -1.22,0.73 -1.85,0.51c-0.62,-0.24 -1.07,-0.71 -1.29,-1.42c-0.4,-1.31 -0.82,-2.65 -1.25,-3.98c-0.42,-1.33 -0.85,-2.67 -1.27,-4c-0.42,-1.31 -0.85,-2.65 -1.29,-3.98c-0.44,-1.33 -0.87,-2.65 -1.29,-3.98c0,-0.04 -0.02,-0.09 -0.04,-0.16c-0.02,-0.04 -0.04,-0.11 -0.09,-0.22c-0.07,0.2 -0.11,0.38 -0.18,0.53c-0.07,0.16 -0.11,0.31 -0.16,0.47c-0.4,1.27 -0.8,2.51 -1.22,3.78c-0.38,1.25 -0.78,2.51 -1.18,3.76c-0.4,1.27 -0.8,2.51 -1.22,3.78c-0.38,1.25 -0.78,2.51 -1.18,3.76c-0.02,0.09 -0.04,0.18 -0.07,0.27c-0.04,0.09 -0.07,0.18 -0.09,0.27c-0.22,0.62 -0.62,1.02 -1.2,1.2c-0.6,0.16 -1.13,0.04 -1.62,-0.4c-0.49,-0.4 -0.98,-0.82 -1.45,-1.25c-0.49,-0.44 -0.98,-0.87 -1.47,-1.29c-0.71,-0.64 -1.42,-1.27 -2.14,-1.89c-0.71,-0.62 -1.42,-1.27 -2.16,-1.89c-0.58,-0.51 -0.87,-1.07 -0.82,-1.69c0.02,-0.64 0.33,-1.18 0.96,-1.65c0.36,-0.24 0.71,-0.51 1.07,-0.76c0.36,-0.27 0.71,-0.53 1.09,-0.8c-0.16,-0.22 -0.29,-0.44 -0.42,-0.64c-0.13,-0.22 -0.24,-0.44 -0.38,-0.67c-0.62,-0.98 -1.25,-1.93 -1.85,-2.91c-0.62,-0.98 -1.22,-1.96 -1.85,-2.91c-0.62,-0.98 -1.25,-1.96 -1.87,-2.94c-0.6,-0.96 -1.22,-1.93 -1.85,-2.91c-0.47,-0.69 -0.6,-1.51 -0.44,-2.47c0.18,-0.93 0.64,-1.62 1.45,-2.05c0.42,-0.24 0.82,-0.47 1.25,-0.73c0.4,-0.27 0.82,-0.53 1.25,-0.8c0.49,-0.29 0.98,-0.42 1.45,-0.4c0.49,0 0.98,0.16 1.47,0.47c1.2,0.78 2.4,1.53 3.63,2.31c1.18,0.76 2.38,1.53 3.6,2.31c1.2,0.76 2.4,1.53 3.6,2.31c1.2,0.76 2.42,1.53 3.6,2.31c0.16,0.07 0.29,0.11 0.4,0.13c0.11,0 0.24,-0.04 0.4,-0.13c1.2,-0.78 2.4,-1.56 3.58,-2.31c1.2,-0.78 2.4,-1.56 3.6,-2.31c1.18,-0.78 2.38,-1.56 3.58,-2.31c1.2,-0.78 2.4,-1.53 3.58,-2.31c0.51,-0.33 1.02,-0.49 1.53,-0.49c0.53,0 1.05,0.16 1.58,0.49c0.38,0.24 0.78,0.49 1.16,0.73c0.4,0.24 0.82,0.47 1.25,0.69c0.4,0.22 0.71,0.53 0.96,0.91c0.22,0.38 0.42,0.8 0.56,1.25c0.02,0.04 0.04,0.09 0.04,0.13c0.02,0.07 0.02,0.11 0.04,0.16l0,0.67l0.01,-0.02z" fill="#000000" id="svg_2"/>
 </g>
</svg>