<?xml version="1.0"?>
<svg width="183" height="267" xmlns="http://www.w3.org/2000/svg" xmlns:svg="http://www.w3.org/2000/svg" version="1.1">
 <g class="layer">
  <title>Layer 1</title>
  <path d="m175.54,210.06l6.67,0q0,29.27 -9.63,42.62q-9.45,13.34 -23.72,13.34q-11.67,0 -22.42,-8.71q-10.75,-8.9 -19.27,-47.25l-15.94,-71.89l-55.21,125.25l-35.02,0l79.3,-170.83q-6.3,-33.17 -15.19,-49.1q-8.89,-15.94 -22.05,-15.94q-10.56,0 -18.53,8.16q-7.78,7.96 -8.71,24.82l-6.67,0q0.53,-27.23 10.94,-43.54q10.37,-16.49 25.94,-16.49q10,0 18.9,8.34q9.07,8.15 15.56,28.16q6.67,19.83 20.57,82.45l13.15,58.74q7.97,36.5 16.68,48.91q8.89,12.23 21.12,12.23q20.75,0 23.53,-29.27z" id="svg_1" opacity="0.15"/>
 </g>
</svg>