<?xml version="1.0"?>
<svg width="96" height="96" xmlns="http://www.w3.org/2000/svg" xmlns:svg="http://www.w3.org/2000/svg" enable-background="new 0 0 100 100" version="1.1" xml:space="preserve">
 <g class="layer" opacity="0.15">
  <title>Layer 1</title>
  <path d="m5273.1,2400.1l0,-2c0,-2.8 -5,-4 -9.7,-4s-9.7,1.3 -9.7,4l0,2c0,1.8 0.7,3.6 2,4.9l5,4.9c0.3,0.3 0.4,0.6 0.4,1l0,6.4c0,0.4 0.2,0.7 0.6,0.8l2.9,0.9c0.5,0.1 1,-0.2 1,-0.8l0,-7.2c0,-0.4 0.2,-0.7 0.4,-1l5.1,-5c1.3,-1.3 2,-3.1 2,-4.9zm-9.7,-0.1c-4.8,0 -7.4,-1.3 -7.5,-1.8l0,0c0.1,-0.5 2.7,-1.8 7.5,-1.8c4.8,0 7.3,1.3 7.5,1.8c-0.2,0.5 -2.7,1.8 -7.5,1.8z" id="svg_4"/>
  <path d="m5268.4,2410.3c-0.6,0 -1,0.4 -1,1c0,0.6 0.4,1 1,1l4.3,0c0.6,0 1,-0.4 1,-1c0,-0.6 -0.4,-1 -1,-1l-4.3,0z" id="svg_5"/>
  <path d="m5272.7,2413.7l-4.3,0c-0.6,0 -1,0.4 -1,1c0,0.6 0.4,1 1,1l4.3,0c0.6,0 1,-0.4 1,-1c0,-0.6 -0.4,-1 -1,-1z" id="svg_6"/>
  <path d="m5272.7,2417l-4.3,0c-0.6,0 -1,0.4 -1,1c0,0.6 0.4,1 1,1l4.3,0c0.6,0 1,-0.4 1,-1c0,-0.5 -0.4,-1 -1,-1z" id="svg_7"/>
 </g>
 <g class="layer" opacity="0.15">
  <title>Layer 2</title>
  <g id="svg_8">
   <path d="m40.2,74.23l-8.3,8.3c-1.5,1.5 -1.5,4 0,5.5c0.8,0.8 1.7,1.1 2.7,1.1c1,0 2,-0.4 2.7,-1.1l8.3,-8.3c1.5,-1.5 1.5,-4 0,-5.5c-1.5,-1.5 -3.9,-1.5 -5.4,0z" id="svg_9"/>
   <path d="m39.7,59.93c0,-2.1 -1.7,-3.9 -3.9,-3.9l-7.5,0c-2.1,0 -3.9,1.7 -3.9,3.9c0,2.1 1.7,3.9 3.9,3.9l7.5,0c2.1,-0.1 3.9,-1.8 3.9,-3.9z" id="svg_10"/>
   <path d="m60,39.63c2.1,0 3.9,-1.7 3.9,-3.9l0,-7.5c0,-2.1 -1.7,-3.9 -3.9,-3.9s-3.9,1.7 -3.9,3.9l0,7.5c0,2.1 1.8,3.9 3.9,3.9z" id="svg_11"/>
   <path d="m77.1,46.63c1,0 2,-0.4 2.7,-1.1l8.3,-8.3c1.5,-1.5 1.5,-4 0,-5.5c-1.5,-1.5 -4,-1.5 -5.5,0l-8.3,8.3c-1.5,1.5 -1.5,4 0,5.5c0.8,0.8 1.8,1.1 2.8,1.1z" id="svg_12"/>
   <path d="m91.6,56.03l-7.5,0c-2.1,0 -3.9,1.7 -3.9,3.9c0,2.1 1.7,3.9 3.9,3.9l7.5,0c2.1,0 3.9,-1.7 3.9,-3.9c0,-2.2 -1.7,-3.9 -3.9,-3.9z" id="svg_13"/>
   <path d="m79.8,74.23c-1.5,-1.5 -4,-1.5 -5.5,0c-1.5,1.5 -1.5,4 0,5.5l8.3,8.3c0.8,0.8 1.7,1.1 2.7,1.1c1,0 2,-0.4 2.7,-1.1c1.5,-1.5 1.5,-4 0,-5.5l-8.2,-8.3z" id="svg_14"/>
   <path d="m60,80.23c-2.1,0 -3.9,1.7 -3.9,3.9l0,7.5c0,2.1 1.7,3.9 3.9,3.9s3.9,-1.7 3.9,-3.9l0,-7.5c-0.1,-2.2 -1.8,-3.9 -3.9,-3.9z" id="svg_15"/>
   <path d="m60,48.53c-1.8,0 -3.4,0.4 -4.8,1.1l-14.6,-14.5l1.2,-1.2c2.7,-2.7 2.7,-7.2 0,-10l-21.5,-21.4c-2.7,-2.7 -7.2,-2.7 -10,0l-7.7,7.7c-2.8,2.7 -2.8,7.2 0,10l21.4,21.5c1.4,1.3 3.2,2 5,2s3.6,-0.7 5,-2l1.1,-1.2l14.5,14.5c-0.7,1.5 -1.1,3.1 -1.1,4.8c0,6.3 5.1,11.4 11.4,11.4c6.3,0 11.4,-5.1 11.4,-11.4s-5,-11.3 -11.3,-11.3zm-40.8,-29.5c-1.9,1.9 -4.9,1.9 -6.8,0s-1.9,-4.9 0,-6.8c1.9,-1.9 4.9,-1.9 6.8,0c1.9,1.9 1.9,5 0,6.8z" id="svg_16"/>
  </g>
 </g>
</svg>