<?xml version="1.0" encoding="UTF-8" standalone="no"?>
<!-- Created with Inkscape (http://www.inkscape.org/) -->

<svg
   version="1.1"
   id="svg2"
   width="719.12"
   height="819.67999"
   viewBox="0 0 719.12 819.67999"
   sodipodi:docname="markforged_mark_k.eps"
   xmlns:inkscape="http://www.inkscape.org/namespaces/inkscape"
   xmlns:sodipodi="http://sodipodi.sourceforge.net/DTD/sodipodi-0.dtd"
   xmlns="http://www.w3.org/2000/svg"
   xmlns:svg="http://www.w3.org/2000/svg">
  <defs
     id="defs6" />
  <sodipodi:namedview
     id="namedview4"
     pagecolor="#ffffff"
     bordercolor="#000000"
     borderopacity="0.25"
     inkscape:showpageshadow="2"
     inkscape:pageopacity="0.0"
     inkscape:pagecheckerboard="0"
     inkscape:deskcolor="#d1d1d1" />
  <g
     id="g8"
     inkscape:groupmode="layer"
     inkscape:label="ink_ext_XXXXXX"
     transform="matrix(1.3333333,0,0,-1.3333333,0,819.68)" opacity="0.15">
    <g
       id="g10"
       transform="scale(0.1)">
      <path
         d="m 5393.35,1658.44 v 938.95 c 0,85.88 -42.61,167.28 -115.47,212.7 -77.06,48 -174.01,49.41 -252.24,4.25 L 1879.52,997.922 1552.64,1186.65 5270.8,3333.32 c 75.83,43.79 122.55,124.71 122.55,212.29 v 938.95 c 0,85.88 -42.61,167.3 -115.47,212.7 -77.06,48.02 -174.01,49.43 -252.24,4.26 L 490.313,2083.04 v 377.45 L 4453.62,4748.71 c 78.22,45.16 125.5,129.87 122.43,220.6 -2.89,85.8 -52.08,163.39 -126.44,206.31 l -813.18,469.5 c -75.85,43.79 -169.31,43.79 -245.16,0 L 490.313,3970.25 v 377.41 L 2982.7,5786.65 c 90.81,52.43 90.81,183.46 0,235.89 l -156.62,90.44 c -80.06,46.22 -178.71,46.22 -258.79,0 L 122.598,4701.52 C 46.7266,4657.73 0,4576.79 0,4489.21 v -938.95 c 0,-85.87 42.6055,-167.28 115.508,-212.7 77.055,-48 174.008,-49.42 252.226,-4.24 L 3513.85,5149.74 3840.73,4961 122.598,2814.34 C 46.7266,2770.54 0,2689.61 0,2602.04 v -938.97 c 0,-85.87 42.6055,-167.28 115.508,-212.69 77.055,-48.01 174.008,-49.43 252.226,-4.25 L 4903.07,4064.6 V 3687.14 L 939.766,1398.94 c -75.852,-43.79 -122.578,-124.72 -122.578,-212.29 0,-87.59 46.726,-168.52 122.578,-212.322 L 1756.95,502.539 c 75.84,-43.789 169.31,-43.789 245.14,0 L 4903.07,2177.41 v -377.43 l -2492.4,-1439 c -90.79,-52.41 -90.79,-183.441 0,-235.898 l 156.62,-90.4101 c 80.08,-46.2305 178.73,-46.2305 258.79,0 L 5270.8,1446.13 c 75.83,43.78 122.55,124.73 122.55,212.31"
         style="fill:#231f20;fill-opacity:1;fill-rule:nonzero;stroke:none"
         id="path12" />
    </g>
  </g>
</svg>
