<?xml version="1.0"?>
<svg width="184" height="254" xmlns="http://www.w3.org/2000/svg" xmlns:svg="http://www.w3.org/2000/svg" version="1.1">
 <g class="layer">
  <title>Layer 1</title>
  <path d="m114.39,139.96q-33.54,35.94 -58.37,35.94q-15.93,0 -29.64,-12.22l0,9.82q0,17.04 5.18,34.27q5.93,19.09 5.93,25.2q0,8.53 -5.37,14.09q-5.37,5.55 -13.34,5.55q-8.15,0 -12.97,-6.48q-4.81,-6.49 -4.81,-15.57q0,-6.67 4.81,-24.08q5.56,-19.27 5.56,-37.43l0,-168.05l30.57,0l0,109.87q0,16.68 2.78,24.46q2.97,7.78 10.19,12.78q7.41,4.82 16.68,4.82q16.49,0 42.8,-22.6l0,-129.33l30.76,0l0,128.77q0,16.3 3.33,22.6q3.34,6.12 11.3,6.12q12.6,0 16.31,-24.65l6.67,0q-3.52,42.06 -35.58,42.06q-13.89,0 -23.16,-9.26q-9.08,-9.45 -9.63,-26.68z" id="svg_1" opacity="0.15"/>
 </g>
</svg>