<?xml version="1.0"?>
<svg width="225" height="233" xmlns="http://www.w3.org/2000/svg" xmlns:svg="http://www.w3.org/2000/svg" version="1.1">
 <g class="layer">
  <title>Layer 1</title>
  <path d="m1,179.99l1.93,52.36l87.52,0l-3.22,-50.31c-12.25,-4.57 -21.98,-13.47 -29.17,-26.7c-7.2,-13.24 -10.88,-31.71 -11.05,-55.43c0.27,-25.71 6.32,-46.46 18.14,-62.24c11.82,-15.78 27.76,-23.9 47.82,-24.35c8.73,-0.22 18.08,2.17 28.05,7.19c9.96,5.02 18.53,14.01 25.7,26.97c7.16,12.95 10.91,31.23 11.25,54.82c0,22.06 -3.11,39.72 -9.49,52.96c-6.38,13.25 -16.3,22.18 -29.76,26.78l-4.19,50.31l87.52,0l1.93,-52.36l-7.72,0c0,6.42 -1.66,12.06 -5.15,16.94c-3.48,4.88 -10.03,7.44 -19.62,7.7l-43.12,0l1.61,-14.72c20.29,-6.33 36.1,-17.44 47.42,-33.32c11.32,-15.88 17.07,-35.46 17.25,-58.74c-0.54,-29.74 -10.04,-53.23 -28.49,-70.46c-18.46,-17.23 -42.64,-26.03 -72.54,-26.39c-31.84,0.74 -56.92,10.42 -75.25,29.01c-18.32,18.6 -27.67,41.67 -28.04,69.21c0.31,18.68 4.03,34.42 11.13,47.21c7.11,12.79 15.7,22.77 25.79,29.95c10.09,7.18 19.77,11.69 29.04,13.53l0.33,14.72l-42.15,0c-8.76,0 -15.14,-2.12 -19.15,-6.29c-4.01,-4.17 -6.21,-10.29 -6.59,-18.35l-7.73,0z" id="svg_1" opacity="0.15"/>
 </g>
</svg>