<?xml version="1.0"?>
<svg width="400" height="500" xmlns="http://www.w3.org/2000/svg" xmlns:svg="http://www.w3.org/2000/svg" version="1.0">

 <g class="layer">
  <title>Layer 1</title>
  <path d="m4.26,2l0.42,15.55l190.73,237.76l-192.84,229.44l-0.56,14.44l373.95,-1.93c3.66,-46.27 13.68,-94.14 22.28,-139.76l-12.15,-3.04c-11.32,25.55 -19.37,52.88 -43.55,69.84c-26.5,18.59 -61.48,16.24 -92.16,16.24l-172.17,0l175.5,-212l-158.25,-197.82l92.12,-0.36c59.06,0 143.07,-14.26 166.43,56.72c3.99,12.13 6.77,24.73 7.77,37.47l13.17,0l-10.13,-122.55l-360.55,0l0,0l0,0l0,0l0,0z" id="path603" opacity="0.15"/>
 </g>
</svg>