<?xml version="1.0"?>
<svg width="248" height="265" xmlns="http://www.w3.org/2000/svg" xmlns:svg="http://www.w3.org/2000/svg" version="1.1">
 <g class="layer">
  <title>Layer 1</title>
  <path d="m126.44,1q46.14,0 83.38,35.76q37.24,35.57 37.24,94.31q0,58.36 -36.69,95.6q-36.68,37.06 -86.89,37.06q-55.78,0 -89.13,-39.09q-33.35,-39.1 -33.35,-93.2q0,-58.55 37.43,-94.5q37.61,-35.94 88.01,-35.94zm-3.52,13.52q-35.95,0 -57.81,29.84q-21.68,29.64 -21.68,86.34q0,52.99 20.38,86.53q20.38,33.35 59.29,33.35q37.8,0 59.67,-29.28q21.86,-29.46 21.86,-85.41q0,-56.7 -20.57,-88.94q-20.38,-32.43 -61.14,-32.43zm-43.54,73.01l7.04,0q0,15.93 6.48,22.79q6.49,6.85 23.91,6.85l15,0q16.49,0 23.16,-6.67q6.67,-6.85 6.67,-22.97l7.04,0l0,89.49l-7.04,0q0,-15.75 -6.48,-22.61q-6.49,-6.85 -23.72,-6.85l-15.38,0q-16.49,0 -23.16,6.85q-6.48,6.86 -6.48,22.61l-7.04,0l0,-89.49z" id="svg_1" opacity="0.15"/>
 </g>
</svg>